<svg xmlns="http://www.w3.org/2000/svg"  viewBox="0 0 48 48" width="48px" height="48px"><path fill="#8a4581" d="M4.436,12.225C4.971,9.044,5.757,6.54,8.583,4.984c2.108-1.16,4.605-1.318,7.01-1.397 c6.376-0.208,14.087-0.099,20.442,0.453c1.75,0.152,3.62,0.384,4.946,1.537c1.677,1.46,1.966,3.914,2.137,6.131 c0.527,6.838-0.024,12.818,0.423,19.662c0.126,1.931,0.238,5.798-0.484,7.593c-0.753,1.874-1.804,3.831-5.442,4.387 c-6.741,1.031-19.002,0.543-24.843,0.091c-2.074-0.161-7.467-0.174-8.281-5.47C4.182,35.954,3.901,15.406,4.436,12.225z"/><path fill="#010101" d="M26.618,44.466c-5.331,0-10.709-0.279-13.884-0.526l-0.417-0.028 c-2.243-0.149-7.495-0.5-8.319-5.863c-0.34-2.215-0.594-22.704-0.055-25.906l0,0c0.485-2.885,1.225-5.848,4.4-7.596 c2.181-1.2,4.667-1.374,7.234-1.458c6.945-0.228,14.61-0.058,20.502,0.455c1.869,0.161,3.812,0.423,5.23,1.657 c1.789,1.558,2.121,4.05,2.308,6.47c0.275,3.57,0.258,6.96,0.241,10.238c-0.016,3.026-0.031,6.156,0.183,9.43 c0.11,1.686,0.281,5.822-0.519,7.812c-0.788,1.961-1.954,4.103-5.83,4.695C34.684,44.305,30.665,44.466,26.618,44.466z M4.929,12.308L4.929,12.308c-0.525,3.12-0.243,23.635,0.057,25.588c0.703,4.571,5.058,4.861,7.397,5.018l0.428,0.03 c6.445,0.5,18.35,0.888,24.729-0.087c3.359-0.514,4.307-2.224,5.054-4.08c0.744-1.85,0.532-6.111,0.449-7.374 c-0.216-3.308-0.2-6.455-0.185-9.499c0.017-3.258,0.034-6.627-0.238-10.157c-0.17-2.213-0.463-4.482-1.967-5.792 c-1.192-1.038-2.885-1.262-4.66-1.415C30.138,4.03,22.518,3.861,15.609,4.088c-2.442,0.079-4.798,0.241-6.785,1.335 C6.301,6.811,5.485,8.999,4.929,12.308z"/><g><path fill="#febf10" d="M19.871,20.612c2.644,1.108,5.893,0.597,8.069-1.268c0.336-0.288,0.656-0.618,0.813-1.032 c0.156-0.414,0.114-0.929-0.203-1.237c-0.339-0.329-0.862-0.337-1.329-0.408c-0.467-0.071-1.003-0.318-1.05-0.788 c-0.065-0.648,0.787-0.934,1.436-0.993c1.429-0.129,2.857-0.257,4.286-0.386c1.081-0.097,2.413-0.069,2.936,0.882 c0.299,0.545,0.241,1.284,0.697,1.705c0.648,0.598,1.776,0.084,2.537,0.53c0.722,0.423,0.72,1.552,0.189,2.198 c-0.531,0.646-1.393,0.908-2.214,1.064c-0.822,0.155-1.681,0.245-2.405,0.664c-0.724,0.419-1.273,1.292-1.006,2.085 c0.273,0.81,1.248,1.163,2.102,1.138c0.854-0.025,1.686-0.315,2.541-0.312c0.858,0.002,1.772,0.362,2.184,1.114 c0.412,0.752,0.08,1.889-0.751,2.1c-0.62,0.157-1.24-0.204-1.868-0.325c-1.005-0.193-2.016,0.236-2.932,0.693 c-0.915,0.457-1.865,0.965-2.887,0.939c-1.023-0.026-2.108-0.827-2.022-1.847c-1.426,1.6-3.951,2.095-5.876,1.153 c-0.522-0.255-1.056-0.614-1.629-0.522c-0.573,0.092-0.967,0.599-1.377,1.009c-1.822,1.824-5.027,2.026-7.064,0.446 c-0.379,1.433-1.319,2.71-2.576,3.496c-0.498,0.312-1.065,0.553-1.652,0.534c-0.587-0.019-1.19-0.35-1.395-0.901 c-0.242-0.65,0.124-1.384,0.631-1.858c0.506-0.474,1.145-0.785,1.67-1.239s0.946-1.141,0.783-1.816 c1.597,0.392,3.411-0.609,3.93-2.168c0.274-0.821,0.216-1.714,0.371-2.566s0.631-1.755,1.47-1.967 c-1.474-1.316-2.523-3.1-2.958-5.027c-0.102-0.451-0.17-0.927-0.041-1.371c0.235-0.809,1.323-1.249,1.808-0.407 c0.379,0.656,0.306,1.739,0.62,2.479C16.496,18.261,18,19.828,19.871,20.612z"/><path fill="#010101" d="M8.886,33.743c-0.028,0-0.057,0-0.085-0.001c-0.841-0.027-1.583-0.52-1.847-1.226 c-0.345-0.924,0.193-1.869,0.757-2.397c0.3-0.281,0.631-0.503,0.952-0.718c0.252-0.169,0.504-0.337,0.733-0.534 c0.377-0.326,0.739-0.844,0.624-1.32c-0.041-0.17,0.01-0.349,0.133-0.472c0.124-0.122,0.3-0.173,0.472-0.131 c1.344,0.33,2.9-0.532,3.337-1.842c0.147-0.443,0.188-0.927,0.23-1.439c0.029-0.354,0.06-0.709,0.123-1.058 c0.13-0.718,0.484-1.526,1.108-2.005c-1.276-1.321-2.188-2.997-2.592-4.789c-0.109-0.483-0.198-1.054-0.034-1.62 c0.185-0.638,0.755-1.137,1.387-1.213c0.548-0.068,1.046,0.193,1.335,0.694c0.251,0.436,0.333,0.972,0.412,1.49 c0.06,0.391,0.116,0.761,0.235,1.043c0.759,1.787,2.18,3.225,3.897,3.944c0,0,0,0,0,0c2.478,1.039,5.511,0.562,7.551-1.187 c0.245-0.21,0.543-0.495,0.67-0.829c0.099-0.262,0.063-0.558-0.084-0.701c-0.162-0.157-0.475-0.197-0.807-0.238l-0.249-0.034 c-0.662-0.1-1.397-0.476-1.473-1.232c-0.031-0.31,0.059-0.601,0.259-0.844c0.443-0.536,1.288-0.666,1.63-0.697l4.286-0.386 c1.144-0.101,2.741-0.096,3.419,1.14c0.153,0.278,0.228,0.58,0.293,0.847c0.078,0.313,0.144,0.584,0.305,0.732 c0.429,0.396,1.556-0.059,2.45,0.465c0.413,0.241,0.69,0.657,0.782,1.17c0.11,0.617-0.066,1.298-0.459,1.776 c-0.659,0.802-1.687,1.083-2.508,1.238l-0.428,0.077c-0.666,0.115-1.295,0.226-1.819,0.527c-0.528,0.307-0.966,0.948-0.783,1.493 c0.194,0.573,0.972,0.838,1.614,0.798c0.368-0.011,0.739-0.077,1.133-0.147c0.457-0.082,0.924-0.163,1.424-0.165 c0.904,0.002,2.068,0.364,2.621,1.374c0.293,0.535,0.317,1.233,0.061,1.821c-0.223,0.513-0.634,0.878-1.127,1.003 c-0.559,0.146-1.082-0.022-1.543-0.168c-0.18-0.058-0.361-0.115-0.542-0.15c-0.875-0.171-1.808,0.247-2.614,0.649l-0.153,0.077 c-0.881,0.441-1.889,0.96-2.97,0.915c-0.738-0.02-1.497-0.366-1.98-0.905c-0.134-0.15-0.245-0.312-0.33-0.481 c-1.611,1.248-3.954,1.542-5.796,0.642l-0.28-0.143c-0.379-0.197-0.735-0.386-1.05-0.334c-0.316,0.05-0.601,0.347-0.902,0.661 l-0.201,0.207c-1.846,1.848-4.917,2.182-7.148,0.877c-0.497,1.284-1.412,2.403-2.581,3.135 C10.078,33.543,9.473,33.743,8.886,33.743z M11.02,28.01c-0.084,0.568-0.421,1.14-0.971,1.614c-0.259,0.224-0.544,0.416-0.83,0.607 c-0.3,0.202-0.584,0.392-0.825,0.618c-0.368,0.344-0.666,0.884-0.504,1.317c0.135,0.362,0.577,0.563,0.943,0.575 c0.407,0.025,0.856-0.136,1.371-0.457c1.151-0.721,2.01-1.887,2.357-3.2c0.043-0.162,0.164-0.292,0.323-0.346 c0.159-0.055,0.333-0.024,0.467,0.078c1.832,1.421,4.765,1.236,6.404-0.403l0.187-0.192c0.383-0.399,0.818-0.853,1.465-0.957 c0.637-0.105,1.187,0.184,1.67,0.436l0.257,0.131c1.73,0.849,4.002,0.401,5.283-1.036c0.142-0.16,0.372-0.212,0.57-0.126 c0.198,0.084,0.319,0.286,0.301,0.501c-0.026,0.32,0.136,0.575,0.277,0.732c0.301,0.336,0.796,0.561,1.26,0.572 c0.862,0.053,1.683-0.401,2.497-0.81l0.155-0.077c1.023-0.511,2.125-0.949,3.249-0.737c0.219,0.042,0.438,0.11,0.655,0.179 c0.382,0.121,0.711,0.226,0.996,0.153c0.263-0.066,0.399-0.3,0.457-0.433c0.133-0.306,0.125-0.676-0.021-0.942 c-0.347-0.633-1.155-0.881-1.758-0.854c-0.4,0-0.805,0.072-1.233,0.149c-0.412,0.073-0.837,0.149-1.28,0.163 c-1.044,0.019-2.232-0.417-2.59-1.479c-0.36-1.069,0.365-2.178,1.229-2.678c0.678-0.392,1.425-0.521,2.148-0.647l0.414-0.074 c0.655-0.124,1.466-0.337,1.921-0.891c0.209-0.255,0.307-0.634,0.248-0.966c-0.028-0.156-0.103-0.365-0.303-0.482 c-0.585-0.341-1.8,0.166-2.623-0.594c-0.382-0.353-0.497-0.817-0.598-1.228c-0.056-0.227-0.109-0.441-0.199-0.605 c-0.301-0.548-1.08-0.747-2.453-0.624l-4.286,0.386c-0.425,0.038-0.815,0.178-0.948,0.339c-0.034,0.041-0.039,0.069-0.035,0.106 c0.014,0.14,0.295,0.294,0.627,0.344l0.225,0.03c0.435,0.055,0.976,0.123,1.378,0.514c0.434,0.422,0.563,1.134,0.323,1.772 c-0.207,0.546-0.619,0.946-0.955,1.234c-2.32,1.986-5.771,2.531-8.588,1.349l0,0c-1.956-0.818-3.571-2.45-4.432-4.476 c-0.169-0.398-0.237-0.849-0.304-1.284c-0.064-0.426-0.132-0.867-0.289-1.14c-0.119-0.205-0.256-0.209-0.349-0.202 c-0.202,0.025-0.462,0.208-0.547,0.499c-0.101,0.349-0.032,0.763,0.049,1.122c0.412,1.825,1.408,3.517,2.803,4.764 c0.138,0.123,0.197,0.312,0.152,0.492c-0.044,0.18-0.184,0.32-0.363,0.365c-0.63,0.159-0.982,0.916-1.101,1.572 c-0.058,0.316-0.083,0.639-0.11,0.961c-0.045,0.548-0.092,1.115-0.278,1.673C14.377,27.021,12.693,28.089,11.02,28.01z"/></g></svg>